<?xml version="1.0" encoding="UTF-8"?>
<svg id="Layer_1" data-name="Layer 1" xmlns="http://www.w3.org/2000/svg" version="1.1" xmlns:xlink="http://www.w3.org/1999/xlink" viewBox="0 0 22 23">
  <defs>
    <style>
      .cls-1 {
        fill: none;
      }

      .cls-1, .cls-2 {
        stroke-width: 0px;
      }

      .cls-3 {
        clip-path: url(#clippath);
      }

      .cls-2 {
        fill: #003247;
      }
    </style>
    <clipPath id="clippath">
      <rect class="cls-1" width="22" height="23"/>
    </clipPath>
  </defs>
  <g class="cls-3">
    <g>
      <path class="cls-2" d="M2.2,5.6l-1.1-1.1v-1.9l1.3-1.3h1.8l1.3,1.3v1.9l-1.1,1.1.8.8,1.4-1.5v-2.9l-1.9-2H1.9L0,2v2.9l1.4,1.5.8-.8Z"/>
      <path class="cls-2" d="M16.5,2.5l1.3-1.3h1.8l1.3,1.3v1.9l-1.3,1.3h-1.6v1.2h2l1.9-2v-2.9l-1.9-2h-2.7l-1.9,2v2.1h1.1v-1.6Z"/>
      <path class="cls-2" d="M12.4,6.9l1.9-2v-2.9l-1.9-2h-2.7l-1.9,2v2.9l1.9,2h2.7ZM8.8,2.5l1.3-1.3h1.8l1.3,1.3v1.9l-1.3,1.3h-1.8l-1.3-1.3v-1.9Z"/>
      <path class="cls-2" d="M20.1,8.1h-2.7l-1.9,2v2.9l1.4,1.5.8-.8-1.1-1.1v-1.9l1.3-1.3h1.8l1.3,1.3v1.9l-1.1,1.1.8.8,1.4-1.5v-2.9l-1.9-2Z"/>
      <path class="cls-2" d="M19.8,17.5l1.1,1.1v1.9l-1.3,1.3h-1.8l-1.3-1.3v-1.9l1.1-1.1-.8-.8-1.4,1.5v2.9l1.9,2h2.7l1.9-2v-2.9l-1.4-1.5-.8.8Z"/>
      <path class="cls-2" d="M9.6,16.1l-1.4,1.5.8.8,1.1-1.1h1.8l1.3,1.3v1.9l-1.3,1.3h-1.8l-1.1-1.1-.8.8,1.4,1.5h2.7l1.9-2v-2.9l-1.9-2h-2.7Z"/>
      <path class="cls-2" d="M4.2,21.9h-1.8l-1.3-1.3v-1.9l1.3-1.3h1.8l1.1,1.1.8-.8-1.4-1.5H1.9l-1.9,2v2.9l1.9,2h2.7l1.4-1.5-.8-.8-1.1,1.1Z"/>
      <path class="cls-2" d="M4.7,15l1.9-2v-2.9l-1.4-1.5-.8.8,1.1,1.1v1.9l-1.3,1.3h-1.8l-1.3-1.3v-1.9l1.1-1.1-.8-.8-1.4,1.5v2.9l1.9,2h2.7Z"/>
      <path class="cls-2" d="M13.2,12.5l-1.3,1.3h-1.8l-1.3-1.3v-1.9l1.3-1.3h1.6v-1.1h-2l-1.9,2v2.9l1.9,2h2.7l1.9-2v-2.1h-1.1v1.6Z"/>
      <path class="cls-2" d="M4.4,3.5c0-.6-.5-1.2-1.1-1.2s-1.1.5-1.1,1.2.2.8.6,1v6.1c-.3.2-.6.6-.6,1,0,.6.5,1.2,1.1,1.2s1.1-.5,1.1-1.2-.2-.8-.6-1v-6.1c.3-.2.6-.6.6-1h0Z"/>
      <path class="cls-2" d="M3.3,18.4c-.6,0-1.1.5-1.1,1.2s.5,1.2,1.1,1.2.8-.2.9-.6h5.8c.2.3.5.6,1,.6.6,0,1.1-.5,1.1-1.2s-.5-1.2-1.1-1.2-.8.2-1,.6h-5.8c-.2-.3-.5-.6-.9-.6h0Z"/>
      <path class="cls-2" d="M17.6,19.5c0,.6.5,1.2,1.1,1.2s1.1-.5,1.1-1.2-.2-.8-.6-1v-6.1c.3-.2.6-.6.6-1,0-.6-.5-1.2-1.1-1.2s-1.1.5-1.1,1.2.2.8.6,1v6.1c-.3.2-.6.6-.6,1Z"/>
      <path class="cls-2" d="M18.7,4.6c.6,0,1.1-.5,1.1-1.2s-.5-1.2-1.1-1.2-1.1.5-1.1,1.2,0,.2,0,.3l-6.4,6.6c0,0-.2,0-.3,0-.6,0-1.1.5-1.1,1.2s.5,1.2,1.1,1.2,1.1-.5,1.1-1.2,0-.2,0-.3l6.4-6.6c0,0,.2,0,.3,0Z"/>
      <path class="cls-2" d="M11,4.6c.6,0,1.1-.5,1.1-1.2s-.5-1.2-1.1-1.2-1.1.5-1.1,1.2.5,1.2,1.1,1.2Z"/>
    </g>
  </g>
</svg>