<?xml version="1.0" encoding="UTF-8"?>
<svg id="Layer_1" data-name="Layer 1" xmlns="http://www.w3.org/2000/svg" version="1.1" viewBox="0 0 37 54">
  <defs>
    <style>
      .cls-1 {
        fill: #003247;
        stroke-width: 0px;
      }
    </style>
  </defs>
  <path class="cls-1" d="M33.7,29.1H3.2v21.9h30.7v-21.9h-.2ZM19.5,37.5v4.8h-2.1v-4.6c-.7-.3-1-1-1-1.8,0-1.2,1-2.1,2.1-2.1s2.1,1,2.1,2.1c.1.6-.4,1.3-1.1,1.6ZM5.4,12.9l7.9-7.9h10.4l7.9,7.9v9.6h2.1v-10.6L24.6,2.8h-12.1L3.3,12v14.9h32.8v26.2H.9V11.1L11.5.7h14l10.6,10.6v13.5h-6.6v-10.9l-6.6-6.6h-8.6l-6.6,6.6v10.9h-2.2v-11.9h0Z"/>
</svg>