<?xml version="1.0" encoding="UTF-8"?>
<svg id="Layer_1" data-name="Layer 1" xmlns="http://www.w3.org/2000/svg" version="1.1" viewBox="0 0 26 21">
  <defs>
    <style>
      .cls-1 {
        fill: #003247;
        stroke-width: 0px;
      }
    </style>
  </defs>
  <path class="cls-1" d="M7.7,7.7H1.5v11.6H.2v1.3h8.8v-1.3h-1.3V7.7ZM2.7,9h3.7v1.3h-3.7v-1.3ZM2.7,11.6h3.7v1.3h-3.7v-1.3ZM2.7,19.3v-5.1h3.7v5.1h-3.7Z"/>
  <path class="cls-1" d="M19,12.9h6.3v1.3h-6.3v-1.3Z"/>
  <path class="cls-1" d="M16.5,12.9c.7,0,1.3-.6,1.3-1.3s-.6-1.3-1.3-1.3-1.3.6-1.3,1.3.6,1.3,1.3,1.3Z"/>
  <path class="cls-1" d="M25.2,1.3V0h-7.5l-3.1,7.7h-1.9v12.9h3.7v-3.8h8.8v-1.3h-11.2v-6.4h11.2v-1.3h-9.3l2.6-6.4h6.7ZM15.2,16.7v2.6h-1.3v-2.6h1.3Z"/>
</svg>