<?xml version="1.0" encoding="UTF-8"?>
<svg id="Layer_1" data-name="Layer 1" xmlns="http://www.w3.org/2000/svg" version="1.1" viewBox="0 0 26 22">
  <defs>
    <style>
      .cls-1 {
        fill: #003247;
        stroke-width: 0px;
      }
    </style>
  </defs>
  <path class="cls-1" d="M.2,0v7h7.4V0H.2ZM6.4,5.9H1.4V1.2h5v4.8Z"/>
  <path class="cls-1" d="M.2,21.2h7.4v-13H.2v13ZM1.5,9.4h5v10.6H1.5v-10.6Z"/>
  <path class="cls-1" d="M7.6,7h3.7v1.2h-3.7v-1.2Z"/>
  <path class="cls-1" d="M18.8,14.1h6.2v1.2h-6.2v-1.2Z"/>
  <path class="cls-1" d="M16.4,14.1c.7,0,1.2-.5,1.2-1.2s-.6-1.2-1.2-1.2-1.2.5-1.2,1.2.6,1.2,1.2,1.2Z"/>
  <path class="cls-1" d="M25.1,3.6v-1.2h-7.5l-3.1,7h-1.9v11.8h3.7v-3.6h8.7v-1.2h-11.1v-5.9h11.1v-1.2h-9.2l2.6-5.9h6.6ZM15.1,17.7v2.4h-1.2v-2.4h1.2Z"/>
</svg>