<?xml version="1.0" encoding="UTF-8"?>
<svg id="Layer_1" data-name="Layer 1" xmlns="http://www.w3.org/2000/svg" version="1.1" viewBox="0 0 28 27">
  <defs>
    <style>
      .cls-1 {
        fill: #003247;
        stroke-width: 0px;
      }
    </style>
  </defs>
  <path class="cls-1" d="M13.6,0L.2,13.8h4.5v12.7h6.7v-8.1h4.5v8.1h6.7v-12.7h4.5L13.6,0ZM21.5,12.7v12.7h-4.5v-8.1h-6.7v8.1h-4.5v-12.7h-2.8L13.7,1.6l10.7,11h-3Z"/>
  <path class="cls-1" d="M13.6,16.1c.6,0,1.1-.5,1.1-1.2s-.5-1.2-1.1-1.2-1.1.5-1.1,1.2.5,1.2,1.1,1.2Z"/>
  <path class="cls-1" d="M11.2,12.3l.8.8,1.7-1.7,1.7,1.7.8-.8-2.4-2.5-2.4,2.5Z"/>
  <path class="cls-1" d="M9.6,10.6l.8.8,3.2-3.3,3.2,3.3.8-.8-4-4.1-4,4.1Z"/>
  <path class="cls-1" d="M8.1,9l.8.8,4.8-4.9,4.8,4.9.8-.8-5.6-5.7-5.6,5.7Z"/>
</svg>