<?xml version="1.0" encoding="UTF-8"?>
<svg id="Layer_1" data-name="Layer 1" xmlns="http://www.w3.org/2000/svg" version="1.1" viewBox="0 0 28 13">
  <defs>
    <style>
      .cls-1 {
        fill: #003247;
        stroke-width: 0px;
      }
    </style>
  </defs>
  <path class="cls-1" d="M19.9,0H.2l8.5,8.7c.2.6,1.1,3.6,1.1,3.6h3.1l.7-2.1.7,2.1h3.1l.7-2.1.7,2.1h3.1l.7-2.1.7,2.1h3.1l1.3-4.1L19.9,0ZM26,7.8h-3l-6.5-6.7h3l6.5,6.7ZM14,7.8L7.4,1.1h3l6.5,6.7h-3ZM18.5,7.8L12,1.1h3l6.5,6.7h-3ZM2.9,1.1h3l6.5,6.7h-2.9L2.9,1.1ZM10.7,11.2l-.7-2.2h3l-.7,2.2h-1.6ZM15.2,11.2l-.8-2.2h3l-.7,2.2h-1.6ZM19.8,11.2l-.7-2.2h3l-.7,2.2h-1.6ZM24.3,11.2l-.8-2.2h3l-.7,2.2h-1.6Z"/>
</svg>