<?xml version="1.0" encoding="UTF-8"?>
<svg id="Layer_1" data-name="Layer 1" xmlns="http://www.w3.org/2000/svg" version="1.1" xmlns:xlink="http://www.w3.org/1999/xlink" viewBox="0 0 12 26">
  <defs>
    <style>
      .cls-1 {
        fill: none;
      }

      .cls-1, .cls-2 {
        stroke-width: 0px;
      }

      .cls-3 {
        clip-path: url(#clippath);
      }

      .cls-2 {
        fill: #003247;
      }
    </style>
    <clipPath id="clippath">
      <rect class="cls-1" x=".2" width="11" height="26"/>
    </clipPath>
  </defs>
  <g class="cls-3">
    <g>
      <path class="cls-2" d="M5.7,19.5c-.6,0-1.1.5-1.1,1.1s.5,1.1,1.1,1.1,1.1-.5,1.1-1.1-.5-1.1-1.1-1.1Z"/>
      <path class="cls-2" d="M4.4,17.3l-1.9,1.9v2.7l1.9,1.9h2.7l1.9-1.9v-2.7l-1.9-1.9h-2.7ZM7.9,21.5l-1.3,1.3h-1.8l-1.3-1.3v-1.8l1.3-1.3h1.8l1.3,1.3v1.8Z"/>
      <path class="cls-2" d="M8.5,15.6V0H3v15.6L.2,18.3v4.5l3.2,3.2h4.6l3.2-3.2v-4.5l-2.7-2.7h0ZM10.1,22.4l-2.6,2.5h-3.6l-2.6-2.5v-3.6l2.7-2.7V1.1h3.3v1.1h-1.6v1.1h1.6v1.1h-1.6v1.1h1.6v1.1h-1.6v1.1h1.6v1.1h-1.6v1.1h1.6v1.1h-1.6v1.1h1.6v1.1h-1.6v1.1h1.6v2l2.7,2.7v3.6h0Z"/>
    </g>
  </g>
</svg>