<?xml version="1.0" encoding="UTF-8"?>
<svg id="Layer_1" data-name="Layer 1" xmlns="http://www.w3.org/2000/svg" version="1.1" viewBox="0 0 26 23">
  <defs>
    <style>
      .cls-1 {
        fill: #003247;
        stroke-width: 0px;
      }
    </style>
  </defs>
  <path class="cls-1" d="M23.1,2.6h-11.4v9.1h11.4V2.6ZM21.8,10.4h-8.9V3.9h8.8v6.5h0Z"/>
  <path class="cls-1" d="M9.1,0v22.2h16.5V0H9.1ZM24.3,20.9h-13.9V1.3h13.9v19.6Z"/>
  <path class="cls-1" d="M2.5,0L.2,2.3v17.6l2.2,2.3h3.2l2.2-2.3V2.3L5.6,0h-3.2ZM6.6,19.4l-1.4,1.6h-2.1l-1.5-1.6V2.9l1.5-1.6h2.1l1.5,1.6v16.5h0Z"/>
  <path class="cls-1" d="M4,5.2c.7,0,1.3-.6,1.3-1.3s-.6-1.3-1.3-1.3-1.3.6-1.3,1.3.6,1.3,1.3,1.3Z"/>
  <path class="cls-1" d="M19.3,13h3.8v1.3h-3.8v-1.3Z"/>
  <path class="cls-1" d="M19.3,15.7h3.8v1.3h-3.8v-1.3Z"/>
  <path class="cls-1" d="M19.3,18.3h3.8v1.3h-3.8v-1.3Z"/>
</svg>